<svg xmlns="http://www.w3.org/2000/svg" viewBox="0 0 100 100" fill="none">
  <defs>
    <linearGradient id="pi-bg-grad" x1="0%" y1="0%" x2="100%" y2="100%">
      <stop offset="0%" stop-color="#0b1329" />
      <stop offset="100%" stop-color="#1b254b" />
    </linearGradient>
    <linearGradient id="pi-accent-grad" x1="0%" y1="0%" x2="100%" y2="100%">
      <stop offset="0%" stop-color="#00f2fe" />
      <stop offset="100%" stop-color="#4facfe" />
    </linearGradient>
    <filter id="pi-glow" x="-20%" y="-20%" width="140%" height="140%">
      <feDropShadow dx="0" dy="2" stdDeviation="4" flood-color="#00f2fe" flood-opacity="0.6" />
    </filter>
  </defs>
  <rect x="6" y="6" width="88" height="88" rx="20" fill="url(#pi-bg-grad)" stroke="url(#pi-accent-grad)" stroke-width="2.5" />
  <circle cx="50" cy="50" r="36" stroke="url(#pi-accent-grad)" stroke-width="1.5" stroke-dasharray="4 3" fill="none" opacity="0.6" />
  <path d="M 32 34 L 68 34 A 4 4 0 0 1 72 38 L 72 58 A 4 4 0 0 1 68 62 L 58 62 L 58 66 L 42 66 L 42 62 L 32 62 A 4 4 0 0 1 28 58 L 28 38 A 4 4 0 0 1 32 34 Z" fill="#1e293b" stroke="#ffffff" stroke-width="3" stroke-linejoin="round" />
  <line x1="38" y1="39" x2="38" y2="49" stroke="#00f2fe" stroke-width="2.5" stroke-linecap="round" filter="url(#pi-glow)" />
  <line x1="44" y1="39" x2="44" y2="49" stroke="#00f2fe" stroke-width="2.5" stroke-linecap="round" filter="url(#pi-glow)" />
  <line x1="50" y1="39" x2="50" y2="49" stroke="#00f2fe" stroke-width="2.5" stroke-linecap="round" filter="url(#pi-glow)" />
  <line x1="56" y1="39" x2="56" y2="49" stroke="#00f2fe" stroke-width="2.5" stroke-linecap="round" filter="url(#pi-glow)" />
  <line x1="62" y1="39" x2="62" y2="49" stroke="#00f2fe" stroke-width="2.5" stroke-linecap="round" filter="url(#pi-glow)" />
  <circle cx="65" cy="40" r="2.5" fill="#22c55e" filter="url(#pi-glow)" />
  <circle cx="35" cy="40" r="2.5" fill="#eab308" />
</svg>
